<?xml version="1.0" encoding="UTF-8"?>
<svg version="1.1" xmlns="http://www.w3.org/2000/svg" width="96" height="96">
<path d="M0 0 C31.68 0 63.36 0 96 0 C96 31.68 96 63.36 96 96 C64.32 96 32.64 96 0 96 C0 64.32 0 32.64 0 0 Z " fill="#212121" transform="translate(0,0)"/>
<path d="M0 0 C6.88312249 6.39239331 11.32614512 14.14015837 12 23.60546875 C12.09644651 35.41052189 9.30326139 44.71103685 1.14453125 53.49609375 C-4.86597686 59.177725 -11.83678407 62.79978028 -20.16796875 63.24609375 C-20.93882813 63.29636719 -21.7096875 63.34664063 -22.50390625 63.3984375 C-33.66909065 63.82786767 -42.70912246 59.53634143 -50.85546875 52.05859375 C-58.42490114 44.14273424 -60.50934514 35.00576964 -60.37890625 24.375 C-59.66331919 13.76045866 -54.94670643 6.57843254 -47.29296875 -0.50390625 C-33.24103324 -12.27206639 -14.08767192 -11.3970535 0 0 Z " fill="#4BAC4F" transform="translate(72.16796875,20.75390625)"/>
<path d="M0 0 C0.88671387 0.0112793 1.77342773 0.02255859 2.68701172 0.03417969 C12.59049798 0.24106945 25.80962191 0.87212191 33.25 8.3125 C32.875 10.9375 32.875 10.9375 32.25 13.3125 C28.13497242 12.73760644 24.6184386 11.73254721 20.75 10.25 C10.31860307 6.92544393 -2.03893535 7.08200907 -12.7890625 8.95703125 C-13.76617188 9.07433594 -14.74328125 9.19164062 -15.75 9.3125 C-17.75 7.3125 -17.75 7.3125 -17.8125 5.375 C-16.41816091 2.66834176 -14.63031465 2.04133116 -11.87866211 0.92993164 C-7.95620989 -0.20779994 -4.0543079 -0.08435292 0 0 Z " fill="#222522" transform="translate(40.75,30.6875)"/>
<path d="M0 0 C0 1.65 0 3.3 0 5 C-4.64160677 4.56822263 -8.59303835 3.47531769 -13 1.9375 C-22.61746836 -1.12765158 -32.13169465 -0.55217591 -42 1 C-42.33 -0.65 -42.66 -2.3 -43 -4 C-28.81710372 -11.24233002 -13.3810842 -6.6905421 0 0 Z " fill="#232823" transform="translate(69,50)"/>
<path d="M0 0 C2.30859375 1.484375 2.30859375 1.484375 3.1484375 3.65625 C3.20128906 4.25953125 3.25414062 4.8628125 3.30859375 5.484375 C0.8464014 6.37247051 -0.34067552 6.60964166 -2.84326172 5.71582031 C-3.61557129 5.33522461 -4.38788086 4.95462891 -5.18359375 4.5625 C-11.13218612 2.02402614 -16.43025586 2.0231283 -22.81640625 2.234375 C-23.86828125 2.25242187 -24.92015625 2.27046875 -26.00390625 2.2890625 C-28.56740047 2.33567149 -31.12888719 2.4010723 -33.69140625 2.484375 C-34.02140625 1.164375 -34.35140625 -0.155625 -34.69140625 -1.515625 C-23.48403639 -5.93818458 -10.9244479 -4.4188778 0 0 Z " fill="#242C24" transform="translate(61.69140625,58.515625)"/>
</svg>
